<?xml version="1.0" encoding="UTF-8"?>
<svg width="24" height="24" viewBox="0 0 24 24" fill="none" xmlns="http://www.w3.org/2000/svg">
  <path d="M12 2C6.48 2 2 6.48 2 12C2 17.52 6.48 22 12 22C17.52 22 22 17.52 22 12C22 6.48 17.52 2 12 2ZM12 20C7.59 20 4 16.41 4 12C4 7.59 7.59 4 12 4C16.41 4 20 7.59 20 12C20 16.41 16.41 20 12 20Z" fill="currentColor"/>
  <path d="M15.88 8.29L10.29 13.88C10.1 14.07 10 14.32 10 14.58C10 15.1 10.42 15.52 10.94 15.52C11.2 15.52 11.45 15.42 11.64 15.23L17.23 9.64C17.42 9.45 17.52 9.2 17.52 8.94C17.52 8.42 17.1 8 16.58 8C16.32 8 16.07 8.1 15.88 8.29Z" fill="currentColor"/>
  <path d="M8.12 15.71L13.71 10.12C13.9 9.93 14 9.68 14 9.42C14 8.9 13.58 8.48 13.06 8.48C12.8 8.48 12.55 8.58 12.36 8.77L6.77 14.36C6.58 14.55 6.48 14.8 6.48 15.06C6.48 15.58 6.9 16 7.42 16C7.68 16 7.93 15.9 8.12 15.71Z" fill="currentColor"/>
</svg> 